<svg xmlns="http://www.w3.org/2000/svg" width="30.027" height="39.068" viewBox="0 0 30.027 39.068">
  <path id="パス_8" data-name="パス 8" d="M829.878,2681.551c-2.667-.808-5.232,1.724-5.82,2.212s-6.349-7.04-6.349-7.04-4.632-8.27-3.951-8.617,4.022-1.7,4.336-4.469c.149-1.31-2.665-8.352-4.535-8.738-1.641-.339-6.006,1.93-6.565,5.228s-.876,5.426,1.521,11.529a51.3,51.3,0,0,0,10.207,15.516c4.654,4.618,6.735,5.169,9.984,5.962s7.061-2.317,7.4-3.959C836.492,2687.3,831.14,2681.933,829.878,2681.551Z" transform="translate(-806.424 -2654.528)" fill="none" stroke="#040000" stroke-miterlimit="10" stroke-width="0.647"/>
</svg>
